<svg id="visual" viewBox="0 0 450 900" width="450" height="900" xmlns="http://www.w3.org/2000/svg" xmlns:xlink="http://www.w3.org/1999/xlink" version="1.1"><rect x="0" y="0" width="450" height="900" fill="#f1eade"></rect><defs><linearGradient id="grad1_0" x1="0%" y1="0%" x2="100%" y2="100%"><stop offset="30%" stop-color="#ff6fa9" stop-opacity="1"></stop><stop offset="70%" stop-color="#ff6fa9" stop-opacity="1"></stop></linearGradient></defs><defs><linearGradient id="grad1_1" x1="0%" y1="0%" x2="100%" y2="100%"><stop offset="30%" stop-color="#ff6fa9" stop-opacity="1"></stop><stop offset="70%" stop-color="#ff829d" stop-opacity="1"></stop></linearGradient></defs><defs><linearGradient id="grad1_2" x1="0%" y1="0%" x2="100%" y2="100%"><stop offset="30%" stop-color="#ff9698" stop-opacity="1"></stop><stop offset="70%" stop-color="#ff829d" stop-opacity="1"></stop></linearGradient></defs><defs><linearGradient id="grad1_3" x1="0%" y1="0%" x2="100%" y2="100%"><stop offset="30%" stop-color="#ff9698" stop-opacity="1"></stop><stop offset="70%" stop-color="#ffa999" stop-opacity="1"></stop></linearGradient></defs><defs><linearGradient id="grad1_4" x1="0%" y1="0%" x2="100%" y2="100%"><stop offset="30%" stop-color="#fcbca2" stop-opacity="1"></stop><stop offset="70%" stop-color="#ffa999" stop-opacity="1"></stop></linearGradient></defs><defs><linearGradient id="grad1_5" x1="0%" y1="0%" x2="100%" y2="100%"><stop offset="30%" stop-color="#fcbca2" stop-opacity="1"></stop><stop offset="70%" stop-color="#f6cdb1" stop-opacity="1"></stop></linearGradient></defs><defs><linearGradient id="grad1_6" x1="0%" y1="0%" x2="100%" y2="100%"><stop offset="30%" stop-color="#f2dcc6" stop-opacity="1"></stop><stop offset="70%" stop-color="#f6cdb1" stop-opacity="1"></stop></linearGradient></defs><defs><linearGradient id="grad1_7" x1="0%" y1="0%" x2="100%" y2="100%"><stop offset="30%" stop-color="#f2dcc6" stop-opacity="1"></stop><stop offset="70%" stop-color="#f1eade" stop-opacity="1"></stop></linearGradient></defs><defs><linearGradient id="grad2_0" x1="0%" y1="0%" x2="100%" y2="100%"><stop offset="30%" stop-color="#ff6fa9" stop-opacity="1"></stop><stop offset="70%" stop-color="#ff6fa9" stop-opacity="1"></stop></linearGradient></defs><defs><linearGradient id="grad2_1" x1="0%" y1="0%" x2="100%" y2="100%"><stop offset="30%" stop-color="#ff829d" stop-opacity="1"></stop><stop offset="70%" stop-color="#ff6fa9" stop-opacity="1"></stop></linearGradient></defs><defs><linearGradient id="grad2_2" x1="0%" y1="0%" x2="100%" y2="100%"><stop offset="30%" stop-color="#ff829d" stop-opacity="1"></stop><stop offset="70%" stop-color="#ff9698" stop-opacity="1"></stop></linearGradient></defs><defs><linearGradient id="grad2_3" x1="0%" y1="0%" x2="100%" y2="100%"><stop offset="30%" stop-color="#ffa999" stop-opacity="1"></stop><stop offset="70%" stop-color="#ff9698" stop-opacity="1"></stop></linearGradient></defs><defs><linearGradient id="grad2_4" x1="0%" y1="0%" x2="100%" y2="100%"><stop offset="30%" stop-color="#ffa999" stop-opacity="1"></stop><stop offset="70%" stop-color="#fcbca2" stop-opacity="1"></stop></linearGradient></defs><defs><linearGradient id="grad2_5" x1="0%" y1="0%" x2="100%" y2="100%"><stop offset="30%" stop-color="#f6cdb1" stop-opacity="1"></stop><stop offset="70%" stop-color="#fcbca2" stop-opacity="1"></stop></linearGradient></defs><defs><linearGradient id="grad2_6" x1="0%" y1="0%" x2="100%" y2="100%"><stop offset="30%" stop-color="#f6cdb1" stop-opacity="1"></stop><stop offset="70%" stop-color="#f2dcc6" stop-opacity="1"></stop></linearGradient></defs><defs><linearGradient id="grad2_7" x1="0%" y1="0%" x2="100%" y2="100%"><stop offset="30%" stop-color="#f1eade" stop-opacity="1"></stop><stop offset="70%" stop-color="#f2dcc6" stop-opacity="1"></stop></linearGradient></defs><g transform="translate(450, 0)"><path d="M0 405C-55.1 401.1 -110.2 397.1 -155 374.2C-199.8 351.2 -234.3 309.3 -270.8 270.8C-307.4 232.3 -345.9 197.3 -368.6 152.7C-391.3 108.1 -398.2 54.1 -405 0L0 0Z" fill="#f1e3d2"></path><path d="M0 354.4C-48.2 350.9 -96.4 347.5 -135.6 327.4C-174.8 307.3 -205 270.7 -237 237C-268.9 203.3 -302.7 172.6 -322.5 133.6C-342.4 94.6 -348.4 47.3 -354.4 0L0 0Z" fill="#f4d5bb"></path><path d="M0 303.8C-41.3 300.8 -82.6 297.8 -116.2 280.6C-149.8 263.4 -175.7 232 -203.1 203.1C-230.5 174.2 -259.4 147.9 -276.5 114.5C-293.5 81.1 -298.6 40.5 -303.7 0L0 0Z" fill="#f9c5a9"></path><path d="M0 253.1C-34.4 250.7 -68.9 248.2 -96.9 233.9C-124.9 219.5 -146.4 193.3 -169.3 169.3C-192.1 145.2 -216.2 123.3 -230.4 95.4C-244.6 67.6 -248.9 33.8 -253.1 0L0 0Z" fill="#ffb39d"></path><path d="M0 202.5C-27.5 200.5 -55.1 198.6 -77.5 187.1C-99.9 175.6 -117.1 154.7 -135.4 135.4C-153.7 116.2 -173 98.6 -184.3 76.3C-195.7 54.1 -199.1 27 -202.5 0L0 0Z" fill="#ffa098"></path><path d="M0 151.9C-20.7 150.4 -41.3 148.9 -58.1 140.3C-74.9 131.7 -87.9 116 -101.6 101.6C-115.3 87.1 -129.7 74 -138.2 57.3C-146.7 40.5 -149.3 20.3 -151.9 0L0 0Z" fill="#ff8c9a"></path><path d="M0 101.3C-13.8 100.3 -27.5 99.3 -38.7 93.5C-49.9 87.8 -58.6 77.3 -67.7 67.7C-76.8 58.1 -86.5 49.3 -92.2 38.2C-97.8 27 -99.5 13.5 -101.2 0L0 0Z" fill="#ff78a2"></path><path d="M0 50.6C-6.9 50.1 -13.8 49.6 -19.4 46.8C-25 43.9 -29.3 38.7 -33.9 33.9C-38.4 29 -43.2 24.7 -46.1 19.1C-48.9 13.5 -49.8 6.8 -50.6 0L0 0Z" fill="#ff6fa9"></path></g><g transform="translate(0, 900)"><path d="M0 -405C49.3 -392 98.5 -379 150 -362.2C201.5 -345.3 255.3 -324.6 286.4 -286.4C317.5 -248.1 325.8 -192.3 341.8 -141.6C357.8 -90.9 381.4 -45.5 405 0L0 0Z" fill="#f1e3d2"></path><path d="M0 -354.4C43.1 -343 86.2 -331.6 131.3 -316.9C176.3 -302.2 223.4 -284.1 250.6 -250.6C277.8 -217.1 285.1 -168.2 299.1 -123.9C313.1 -79.6 333.7 -39.8 354.4 0L0 0Z" fill="#f4d5bb"></path><path d="M0 -303.7C36.9 -294 73.9 -284.2 112.5 -271.6C151.1 -259 191.5 -243.5 214.8 -214.8C238.1 -186.1 244.4 -144.2 256.4 -106.2C268.4 -68.2 286.1 -34.1 303.8 0L0 0Z" fill="#f9c5a9"></path><path d="M0 -253.1C30.8 -245 61.6 -236.9 93.8 -226.4C126 -215.8 159.6 -202.9 179 -179C198.4 -155.1 203.7 -120.2 213.6 -88.5C223.6 -56.8 238.4 -28.4 253.1 0L0 0Z" fill="#ffb39d"></path><path d="M0 -202.5C24.6 -196 49.3 -189.5 75 -181.1C100.8 -172.7 127.6 -162.3 143.2 -143.2C158.7 -124.1 162.9 -96.1 170.9 -70.8C178.9 -45.5 190.7 -22.7 202.5 0L0 0Z" fill="#ffa098"></path><path d="M0 -151.9C18.5 -147 36.9 -142.1 56.3 -135.8C75.6 -129.5 95.7 -121.7 107.4 -107.4C119 -93 122.2 -72.1 128.2 -53.1C134.2 -34.1 143 -17 151.9 0L0 0Z" fill="#ff8c9a"></path><path d="M0 -101.2C12.3 -98 24.6 -94.7 37.5 -90.5C50.4 -86.3 63.8 -81.2 71.6 -71.6C79.4 -62 81.5 -48.1 85.5 -35.4C89.5 -22.7 95.4 -11.4 101.3 0L0 0Z" fill="#ff78a2"></path><path d="M0 -50.6C6.2 -49 12.3 -47.4 18.8 -45.3C25.2 -43.2 31.9 -40.6 35.8 -35.8C39.7 -31 40.7 -24 42.7 -17.7C44.7 -11.4 47.7 -5.7 50.6 0L0 0Z" fill="#ff6fa9"></path></g></svg>