<?xml version="1.0" standalone="no"?>
<!DOCTYPE svg PUBLIC "-//W3C//DTD SVG 20010904//EN"
 "http://www.w3.org/TR/2001/REC-SVG-20010904/DTD/svg10.dtd">
<svg version="1.0" xmlns="http://www.w3.org/2000/svg"
 width="500.000000pt" height="500.000000pt" viewBox="0 0 500.000000 500.000000"
 preserveAspectRatio="xMidYMid meet">

<g transform="translate(0.000000,500.000000) scale(0.100000,-0.100000)"
fill="#000000" stroke="none">
<path d="M788 3561 c-122 -40 -155 -154 -70 -244 15 -16 57 -44 93 -62 86 -44
129 -81 129 -110 0 -57 -83 -77 -117 -29 -48 69 -60 78 -98 78 -46 0 -75 -31
-75 -81 0 -125 299 -157 383 -42 25 35 26 118 2 156 -25 40 -50 59 -138 104
-93 48 -117 70 -117 109 0 33 22 50 65 50 21 0 29 -8 44 -44 11 -24 27 -46 36
-50 69 -26 127 26 104 93 -16 46 -69 73 -147 77 -37 2 -79 0 -94 -5z"/>
<path d="M1396 3556 c-62 -23 -71 -57 -35 -129 34 -65 38 -194 9 -272 -34 -94
-36 -120 -9 -139 54 -37 169 -4 169 49 0 14 -9 44 -21 66 -14 29 -19 55 -17
92 l3 52 45 13 c116 34 152 63 165 133 9 50 -15 103 -57 125 -45 24 -198 30
-252 10z m173 -74 c47 -37 19 -122 -41 -122 -33 0 -42 16 -42 73 -1 60 41 84
83 49z"/>
<path d="M2036 3556 c-62 -23 -71 -57 -35 -129 34 -65 38 -194 9 -272 -34 -94
-36 -120 -9 -139 54 -37 169 -4 169 49 0 14 -9 43 -20 65 -39 76 -18 190 25
134 37 -48 75 -139 75 -181 0 -58 25 -83 83 -83 52 0 107 31 107 61 0 13 -29
52 -74 100 -41 42 -82 92 -91 110 l-17 32 35 32 c72 66 71 166 -3 209 -45 26
-196 33 -254 12z m173 -74 c47 -37 19 -122 -41 -122 -33 0 -42 16 -42 73 -1
60 41 84 83 49z"/>
<path d="M2760 3563 c-54 -21 -63 -68 -28 -136 31 -61 31 -219 0 -295 -12 -29
-22 -64 -22 -77 0 -49 74 -70 145 -41 46 20 53 51 24 113 -30 66 -38 209 -14
273 39 105 41 118 18 141 -21 21 -93 34 -123 22z"/>
<path d="M3256 3560 c-39 -12 -66 -39 -66 -66 0 -12 9 -44 21 -71 31 -72 32
-207 1 -289 -13 -34 -22 -73 -20 -85 5 -37 63 -52 174 -46 134 8 193 38 237
122 25 48 35 197 18 261 -29 109 -128 177 -261 181 -41 1 -88 -2 -104 -7z
m175 -96 c20 -10 38 -32 52 -62 40 -89 19 -274 -34 -302 -30 -17 -75 -11 -95
11 -16 18 -19 40 -22 168 -4 166 4 201 43 201 14 0 40 -7 56 -16z"/>
<path d="M4083 3550 c-31 -19 -33 -23 -33 -78 0 -111 -68 -310 -124 -361 -74
-69 14 -141 118 -97 42 17 51 43 35 95 -15 52 -1 71 51 71 75 0 81 -10 53 -92
l-18 -50 25 -20 c31 -25 119 -21 150 7 28 26 25 54 -13 118 -46 75 -87 224
-87 312 0 39 -4 75 -8 81 -24 37 -100 44 -149 14z m84 -196 c18 -84 14 -118
-15 -122 -37 -6 -55 16 -47 57 28 150 42 165 62 65z"/>
<path d="M1012 2698 c-23 -23 -14 -55 23 -77 19 -11 35 -27 35 -36 0 -19 -29
-20 -36 0 -7 18 -44 20 -44 2 0 -22 22 -37 55 -37 59 0 78 58 27 84 -16 8 -34
21 -41 29 -19 23 6 32 30 11 25 -22 50 -5 29 21 -15 18 -61 20 -78 3z"/>
<path d="M1196 2702 c-3 -5 -1 -25 5 -44 6 -24 6 -45 -1 -63 -15 -39 -13 -45
16 -45 24 0 25 2 19 38 -6 35 -4 38 25 49 26 10 31 16 28 40 -3 25 -7 28 -45
31 -22 2 -44 -1 -47 -6z m64 -32 c0 -11 -7 -20 -15 -20 -8 0 -15 9 -15 20 0
11 7 20 15 20 8 0 15 -9 15 -20z"/>
<path d="M1389 2708 c0 -2 -2 -38 -3 -81 -2 -74 -1 -78 18 -75 18 3 20 9 18
42 -5 46 11 41 28 -9 7 -22 18 -35 29 -35 30 0 31 12 6 42 -28 34 -30 41 -13
67 17 27 -5 51 -48 51 -19 0 -34 -1 -35 -2z m59 -35 c-5 -25 -28 -28 -28 -4 0
12 6 21 16 21 9 0 14 -7 12 -17z"/>
<path d="M1599 2708 c0 -2 -2 -38 -2 -81 l-2 -77 48 0 c34 0 49 5 54 15 8 22
-4 30 -22 15 -21 -18 -45 -5 -45 25 0 22 3 25 25 19 19 -5 25 -2 25 9 0 20
-16 31 -25 17 -11 -19 -25 -10 -25 15 0 24 2 25 36 19 29 -5 36 -4 32 7 -3 9
-23 15 -51 17 -26 2 -47 2 -48 0z"/>
<path d="M1827 2704 c-4 -4 -7 -21 -7 -38 0 -17 -9 -46 -20 -64 -26 -43 -25
-52 5 -52 20 0 25 5 25 25 0 18 5 25 20 25 17 0 19 -5 14 -25 -5 -22 -3 -25
20 -25 28 0 32 10 15 42 -6 11 -14 41 -18 67 -5 36 -11 47 -27 49 -11 2 -23 0
-27 -4z m33 -70 c0 -13 -4 -24 -10 -24 -5 0 -10 14 -10 31 0 17 4 28 10 24 6
-3 10 -17 10 -31z"/>
<path d="M1996 2701 c-3 -4 0 -22 6 -39 9 -22 9 -40 1 -66 -6 -19 -8 -37 -5
-40 3 -3 23 -6 44 -6 49 0 78 28 78 74 0 51 -33 86 -80 86 -21 0 -41 -4 -44
-9z m82 -44 c15 -30 6 -76 -15 -84 -21 -8 -33 15 -33 63 0 62 23 72 48 21z"/>
<path d="M2345 2630 c0 -75 1 -81 20 -78 16 2 20 11 20 37 0 36 11 46 34 32
12 -8 13 -14 3 -36 -10 -21 -9 -27 3 -31 32 -13 44 2 33 40 -8 26 -8 46 0 72
8 28 8 36 -4 41 -24 9 -47 -5 -39 -25 12 -31 10 -36 -13 -40 -21 -3 -23 0 -20
30 2 27 -1 34 -17 36 -19 3 -20 -3 -20 -78z"/>
<path d="M2597 2703 c-4 -3 -7 -18 -7 -33 0 -14 -9 -43 -20 -65 -25 -50 -25
-57 3 -53 14 2 23 11 25 26 5 31 32 29 32 -3 0 -18 5 -25 19 -25 28 0 33 14
16 46 -8 16 -17 48 -21 71 -5 32 -11 43 -23 43 -10 0 -21 -3 -24 -7z m29 -79
c-9 -25 -24 -7 -18 22 4 23 6 24 14 10 5 -10 7 -24 4 -32z"/>
<path d="M2766 2702 c-3 -5 -1 -25 5 -44 6 -24 6 -45 -1 -63 -15 -39 -13 -45
16 -45 24 0 25 2 19 38 -6 35 -4 38 25 49 26 10 31 16 28 40 -3 25 -7 28 -45
31 -22 2 -44 -1 -47 -6z m64 -32 c0 -11 -7 -20 -15 -20 -8 0 -15 9 -15 20 0
11 7 20 15 20 8 0 15 -9 15 -20z"/>
<path d="M2959 2708 c0 -2 -2 -38 -3 -81 -2 -74 -1 -78 18 -75 17 2 20 9 18
39 -3 30 1 37 23 47 53 24 39 72 -21 72 -19 0 -34 -1 -35 -2z m59 -35 c-5 -25
-28 -28 -28 -4 0 12 6 21 16 21 9 0 14 -7 12 -17z"/>
<path d="M3136 2701 c-3 -4 -1 -22 4 -40 5 -18 5 -44 -1 -63 -13 -46 -12 -48
14 -48 21 0 22 4 22 80 0 69 -2 80 -17 80 -9 0 -19 -4 -22 -9z"/>
<path d="M3276 2701 c-3 -4 -1 -22 4 -40 5 -18 5 -44 -1 -63 -13 -46 -12 -48
16 -48 25 0 25 1 19 55 -4 30 -4 55 0 55 3 0 17 -25 31 -55 31 -72 55 -74 55
-6 0 27 3 63 6 81 6 29 5 31 -17 28 -22 -3 -24 -7 -22 -53 l3 -50 -26 53 c-17
35 -31 52 -44 52 -10 0 -21 -4 -24 -9z"/>
<path d="M3509 2708 c0 -2 -2 -38 -2 -81 l-2 -77 48 0 c34 0 49 5 54 15 8 22
-4 30 -22 15 -21 -18 -45 -5 -45 25 0 22 3 25 25 19 19 -5 25 -2 25 9 0 20
-16 31 -25 17 -11 -19 -25 -10 -25 15 0 24 2 25 36 19 29 -5 36 -4 32 7 -3 9
-23 15 -51 17 -26 2 -47 2 -48 0z"/>
<path d="M3712 2698 c-27 -27 -11 -54 54 -94 15 -10 16 -15 7 -25 -10 -10 -16
-9 -31 4 -21 19 -38 22 -47 8 -10 -17 26 -41 59 -41 66 0 74 50 13 89 -38 25
-49 51 -22 51 9 0 18 -7 21 -15 9 -22 34 -19 34 4 0 30 -63 44 -88 19z"/>
<path d="M3912 2698 c-27 -27 -11 -54 54 -94 15 -10 16 -15 7 -25 -10 -10 -16
-9 -31 4 -21 19 -38 22 -47 8 -10 -17 26 -41 59 -41 66 0 74 50 13 89 -38 25
-49 51 -22 51 9 0 18 -7 21 -15 9 -22 34 -19 34 4 0 30 -63 44 -88 19z"/>
</g>
</svg>
